# xmcd
#
# Track frame offsets:
#	150
#	17220
#	34115
#	53074
#	69400
#	86926
#	101959
#	119676
#	137298
#	155010
#
# Disc length: 2296 seconds
#
# Revision: 0
# Processed by: cddbd v1.5.2PL0 Copyright (c) Steve Scherf et al.
# Submitted via: audiograbber 1.83.01
#
DISCID=8a08f60a
DTITLE=Ovidiu Komornyik - Nu Plange Iubito
DYEAR=2004
DGENRE=Pop
TTITLE0=Nu  Plange Iubito
TTITLE1=Nostalgie
TTITLE2=Ai Uitate De Mine
TTITLE3=Ultimul  Tango
TTITLE4=Ramai, Nu Mai Pleca
TTITLE5=Saruta-Ma
TTITLE6=Suflet Pereche
TTITLE7=Intaia Vara
TTITLE8=Pre Tarziu
TTITLE9=Numai Tu
EXTD=CD Nr. 101 2324 2
EXTT0=
EXTT1=
EXTT2=
EXTT3=
EXTT4=
EXTT5=
EXTT6=
EXTT7=
EXTT8=
EXTT9=
PLAYORDER=
